<mxfile host="app.diagrams.net" agent="Mozilla/5.0 (Windows NT 10.0; Win64; x64) AppleWebKit/537.36 (KHTML, like Gecko) Chrome/131.0.0.0 Safari/537.36" version="25.0.0">
  <diagram name="Page-1" id="KyFJbN3LeG4HaSNtgouU">
    <mxGraphModel dx="875" dy="469" grid="1" gridSize="10" guides="1" tooltips="1" connect="1" arrows="1" fold="1" page="1" pageScale="1" pageWidth="1169" pageHeight="827" math="0" shadow="0">
      <root>
        <mxCell id="0" />
        <mxCell id="1" parent="0" />
        <mxCell id="ROm6DJFv5Au94kjieVda-2" value="" style="ellipse;html=1;shape=startState;fillColor=#000000;strokeColor=#ff0000;" vertex="1" parent="1">
          <mxGeometry x="110" y="290" width="30" height="30" as="geometry" />
        </mxCell>
        <mxCell id="ROm6DJFv5Au94kjieVda-3" value="" style="edgeStyle=orthogonalEdgeStyle;html=1;verticalAlign=bottom;endArrow=open;endSize=8;strokeColor=#ff0000;rounded=0;" edge="1" source="ROm6DJFv5Au94kjieVda-2" parent="1">
          <mxGeometry relative="1" as="geometry">
            <mxPoint x="190" y="300" as="targetPoint" />
          </mxGeometry>
        </mxCell>
        <mxCell id="ROm6DJFv5Au94kjieVda-4" value="" style="rounded=1;whiteSpace=wrap;html=1;arcSize=40;fontColor=#000000;fillColor=#ffffc0;strokeColor=#ff0000;" vertex="1" parent="1">
          <mxGeometry x="1500" y="107" width="600" height="370" as="geometry" />
        </mxCell>
        <mxCell id="ROm6DJFv5Au94kjieVda-5" value="" style="edgeStyle=orthogonalEdgeStyle;html=1;verticalAlign=bottom;endArrow=open;endSize=8;strokeColor=#ff0000;rounded=0;exitX=0.321;exitY=0;exitDx=0;exitDy=0;exitPerimeter=0;entryX=1;entryY=0.5;entryDx=0;entryDy=0;" edge="1" source="ROm6DJFv5Au94kjieVda-4" parent="1" target="ROm6DJFv5Au94kjieVda-8">
          <mxGeometry relative="1" as="geometry">
            <mxPoint x="1280" y="142" as="targetPoint" />
          </mxGeometry>
        </mxCell>
        <mxCell id="ROm6DJFv5Au94kjieVda-6" value="&lt;b&gt;&lt;font style=&quot;font-size: 21px;&quot;&gt;User Active&lt;/font&gt;&lt;/b&gt;" style="text;strokeColor=none;align=center;fillColor=none;html=1;verticalAlign=middle;whiteSpace=wrap;rounded=0;" vertex="1" parent="1">
          <mxGeometry x="1620" y="117" width="360" height="30" as="geometry" />
        </mxCell>
        <mxCell id="ROm6DJFv5Au94kjieVda-7" value="Logout&lt;div&gt;&lt;br&gt;&lt;/div&gt;" style="text;html=1;align=center;verticalAlign=middle;resizable=0;points=[];autosize=1;strokeColor=none;fillColor=none;" vertex="1" parent="1">
          <mxGeometry x="1490" y="70" width="60" height="40" as="geometry" />
        </mxCell>
        <mxCell id="ROm6DJFv5Au94kjieVda-8" value="Offline state&lt;div&gt;(Session terminated)&lt;/div&gt;" style="rounded=1;whiteSpace=wrap;html=1;arcSize=40;fontColor=#000000;fillColor=#ffffc0;strokeColor=#ff0000;" vertex="1" parent="1">
          <mxGeometry x="510" y="130" width="120" height="40" as="geometry" />
        </mxCell>
        <mxCell id="ROm6DJFv5Au94kjieVda-9" value="" style="edgeStyle=orthogonalEdgeStyle;html=1;verticalAlign=bottom;endArrow=open;endSize=8;strokeColor=#ff0000;rounded=0;entryX=0.5;entryY=0;entryDx=0;entryDy=0;" edge="1" source="ROm6DJFv5Au94kjieVda-8" parent="1" target="ROm6DJFv5Au94kjieVda-2">
          <mxGeometry relative="1" as="geometry">
            <mxPoint x="570" y="230" as="targetPoint" />
          </mxGeometry>
        </mxCell>
        <mxCell id="ROm6DJFv5Au94kjieVda-10" value="&lt;div&gt;&lt;br&gt;&lt;/div&gt;&lt;div&gt;&lt;br&gt;&lt;/div&gt;" style="edgeLabel;html=1;align=center;verticalAlign=middle;resizable=0;points=[];" vertex="1" connectable="0" parent="ROm6DJFv5Au94kjieVda-9">
          <mxGeometry x="-0.0908" y="1" relative="1" as="geometry">
            <mxPoint as="offset" />
          </mxGeometry>
        </mxCell>
        <mxCell id="ROm6DJFv5Au94kjieVda-19" value="Back to initial state" style="edgeLabel;html=1;align=center;verticalAlign=middle;resizable=0;points=[];" vertex="1" connectable="0" parent="ROm6DJFv5Au94kjieVda-9">
          <mxGeometry x="-0.0768" relative="1" as="geometry">
            <mxPoint as="offset" />
          </mxGeometry>
        </mxCell>
        <mxCell id="ROm6DJFv5Au94kjieVda-11" value="initial&lt;div&gt;state&lt;/div&gt;" style="text;html=1;align=center;verticalAlign=middle;resizable=0;points=[];autosize=1;strokeColor=none;fillColor=none;" vertex="1" parent="1">
          <mxGeometry x="100" y="310" width="50" height="40" as="geometry" />
        </mxCell>
        <mxCell id="ROm6DJFv5Au94kjieVda-12" value="In welcome page" style="rounded=1;whiteSpace=wrap;html=1;arcSize=40;fontColor=#000000;fillColor=#ffffc0;strokeColor=#ff0000;" vertex="1" parent="1">
          <mxGeometry x="190" y="280" width="120" height="40" as="geometry" />
        </mxCell>
        <mxCell id="ROm6DJFv5Au94kjieVda-17" value="" style="ellipse;html=1;shape=endState;fillColor=#000000;strokeColor=#ff0000;" vertex="1" parent="1">
          <mxGeometry x="420" y="40" width="30" height="30" as="geometry" />
        </mxCell>
        <mxCell id="ROm6DJFv5Au94kjieVda-13" value="" style="edgeStyle=orthogonalEdgeStyle;html=1;verticalAlign=bottom;endArrow=open;endSize=8;strokeColor=#ff0000;rounded=0;entryX=0.435;entryY=0.002;entryDx=0;entryDy=0;entryPerimeter=0;" edge="1" source="ROm6DJFv5Au94kjieVda-12" parent="1" target="ROm6DJFv5Au94kjieVda-21">
          <mxGeometry relative="1" as="geometry">
            <mxPoint x="260" y="480" as="targetPoint" />
            <Array as="points">
              <mxPoint x="200" y="480" />
              <mxPoint x="192" y="480" />
              <mxPoint x="192" y="510" />
              <mxPoint x="223" y="510" />
            </Array>
          </mxGeometry>
        </mxCell>
        <mxCell id="ROm6DJFv5Au94kjieVda-20" value="Signup attempted" style="edgeLabel;html=1;align=center;verticalAlign=middle;resizable=0;points=[];" vertex="1" connectable="0" parent="ROm6DJFv5Au94kjieVda-13">
          <mxGeometry x="-0.3179" y="-1" relative="1" as="geometry">
            <mxPoint x="-9" y="-9" as="offset" />
          </mxGeometry>
        </mxCell>
        <mxCell id="ROm6DJFv5Au94kjieVda-18" value="Close app" style="html=1;verticalAlign=bottom;endArrow=block;curved=0;rounded=0;entryX=1;entryY=1;entryDx=0;entryDy=0;exitX=0.083;exitY=0;exitDx=0;exitDy=0;exitPerimeter=0;" edge="1" parent="1" source="ROm6DJFv5Au94kjieVda-8" target="ROm6DJFv5Au94kjieVda-17">
          <mxGeometry width="80" relative="1" as="geometry">
            <mxPoint x="480" y="100" as="sourcePoint" />
            <mxPoint x="560" y="100" as="targetPoint" />
          </mxGeometry>
        </mxCell>
        <mxCell id="ROm6DJFv5Au94kjieVda-21" value="In Signup window" style="rounded=1;whiteSpace=wrap;html=1;arcSize=40;fontColor=#000000;fillColor=#ffffc0;strokeColor=#ff0000;" vertex="1" parent="1">
          <mxGeometry x="140" y="540" width="190" height="150" as="geometry" />
        </mxCell>
        <mxCell id="ROm6DJFv5Au94kjieVda-22" value="" style="edgeStyle=orthogonalEdgeStyle;html=1;verticalAlign=bottom;endArrow=open;endSize=8;strokeColor=#ff0000;rounded=0;elbow=vertical;" edge="1" source="ROm6DJFv5Au94kjieVda-21" parent="1" target="ROm6DJFv5Au94kjieVda-21">
          <mxGeometry relative="1" as="geometry">
            <mxPoint x="310" y="770" as="targetPoint" />
          </mxGeometry>
        </mxCell>
        <mxCell id="ROm6DJFv5Au94kjieVda-23" value="non succesful&amp;nbsp;&lt;div&gt;signup&lt;/div&gt;" style="edgeLabel;html=1;align=center;verticalAlign=middle;resizable=0;points=[];" vertex="1" connectable="0" parent="ROm6DJFv5Au94kjieVda-22">
          <mxGeometry x="-0.2141" relative="1" as="geometry">
            <mxPoint x="40" y="11" as="offset" />
          </mxGeometry>
        </mxCell>
        <mxCell id="ROm6DJFv5Au94kjieVda-24" value="" style="edgeStyle=orthogonalEdgeStyle;html=1;verticalAlign=bottom;endArrow=open;endSize=8;strokeColor=#ff0000;rounded=0;elbow=vertical;" edge="1" parent="1" source="ROm6DJFv5Au94kjieVda-21" target="ROm6DJFv5Au94kjieVda-2">
          <mxGeometry relative="1" as="geometry">
            <mxPoint x="40" y="310" as="targetPoint" />
            <mxPoint x="100" y="510" as="sourcePoint" />
            <Array as="points">
              <mxPoint x="41" y="615" />
              <mxPoint x="41" y="310" />
            </Array>
          </mxGeometry>
        </mxCell>
        <mxCell id="ROm6DJFv5Au94kjieVda-25" value="succesful&amp;nbsp;&lt;div&gt;signup&lt;/div&gt;" style="edgeLabel;html=1;align=center;verticalAlign=middle;resizable=0;points=[];" vertex="1" connectable="0" parent="ROm6DJFv5Au94kjieVda-24">
          <mxGeometry x="-0.2141" relative="1" as="geometry">
            <mxPoint x="-1" y="-68" as="offset" />
          </mxGeometry>
        </mxCell>
        <mxCell id="ROm6DJFv5Au94kjieVda-26" value="signup&lt;div&gt;cancelled&lt;/div&gt;" style="edgeLabel;html=1;align=center;verticalAlign=middle;resizable=0;points=[];" vertex="1" connectable="0" parent="1">
          <mxGeometry x="40" y="510" as="geometry" />
        </mxCell>
        <mxCell id="ROm6DJFv5Au94kjieVda-28" value="" style="edgeStyle=orthogonalEdgeStyle;html=1;verticalAlign=bottom;endArrow=open;endSize=8;strokeColor=#ff0000;rounded=0;exitX=1;exitY=0.75;exitDx=0;exitDy=0;" edge="1" source="ROm6DJFv5Au94kjieVda-12" parent="1" target="ROm6DJFv5Au94kjieVda-29">
          <mxGeometry relative="1" as="geometry">
            <mxPoint x="540" y="310" as="targetPoint" />
            <mxPoint x="400.0588235294117" y="295" as="sourcePoint" />
          </mxGeometry>
        </mxCell>
        <mxCell id="ROm6DJFv5Au94kjieVda-30" value="Login attempted" style="edgeLabel;html=1;align=center;verticalAlign=middle;resizable=0;points=[];" vertex="1" connectable="0" parent="ROm6DJFv5Au94kjieVda-28">
          <mxGeometry x="-0.303" y="4" relative="1" as="geometry">
            <mxPoint x="-1" as="offset" />
          </mxGeometry>
        </mxCell>
        <mxCell id="ROm6DJFv5Au94kjieVda-29" value="In Login window" style="rounded=1;whiteSpace=wrap;html=1;arcSize=40;fontColor=#000000;fillColor=#ffffc0;strokeColor=#ff0000;" vertex="1" parent="1">
          <mxGeometry x="550" y="250" width="190" height="150" as="geometry" />
        </mxCell>
        <mxCell id="ROm6DJFv5Au94kjieVda-31" value="" style="edgeStyle=orthogonalEdgeStyle;html=1;verticalAlign=bottom;endArrow=open;endSize=8;strokeColor=#ff0000;rounded=0;elbow=vertical;exitX=-0.001;exitY=0.658;exitDx=0;exitDy=0;exitPerimeter=0;entryX=0.158;entryY=0.933;entryDx=0;entryDy=0;entryPerimeter=0;" edge="1" parent="1" source="ROm6DJFv5Au94kjieVda-29" target="ROm6DJFv5Au94kjieVda-29">
          <mxGeometry relative="1" as="geometry">
            <mxPoint x="500" y="420" as="targetPoint" />
            <mxPoint x="450" y="430" as="sourcePoint" />
            <Array as="points">
              <mxPoint x="501" y="349" />
              <mxPoint x="501" y="420" />
              <mxPoint x="580" y="420" />
            </Array>
          </mxGeometry>
        </mxCell>
        <mxCell id="ROm6DJFv5Au94kjieVda-32" value="non succesful&amp;nbsp;&lt;div&gt;login&lt;/div&gt;" style="edgeLabel;html=1;align=center;verticalAlign=middle;resizable=0;points=[];" vertex="1" connectable="0" parent="ROm6DJFv5Au94kjieVda-31">
          <mxGeometry x="-0.2141" relative="1" as="geometry">
            <mxPoint x="40" y="11" as="offset" />
          </mxGeometry>
        </mxCell>
        <mxCell id="ROm6DJFv5Au94kjieVda-33" value="" style="edgeStyle=orthogonalEdgeStyle;html=1;verticalAlign=bottom;endArrow=open;endSize=8;strokeColor=#ff0000;rounded=0;elbow=vertical;entryX=1;entryY=0;entryDx=0;entryDy=0;" edge="1" parent="1" source="ROm6DJFv5Au94kjieVda-29" target="ROm6DJFv5Au94kjieVda-2">
          <mxGeometry relative="1" as="geometry">
            <mxPoint x="510" y="241" as="targetPoint" />
            <mxPoint x="480" y="200" as="sourcePoint" />
            <Array as="points">
              <mxPoint x="645" y="200" />
              <mxPoint x="431" y="200" />
              <mxPoint x="431" y="271" />
              <mxPoint x="340" y="271" />
              <mxPoint x="340" y="260" />
              <mxPoint x="136" y="260" />
            </Array>
          </mxGeometry>
        </mxCell>
        <mxCell id="ROm6DJFv5Au94kjieVda-34" value="Login&lt;div&gt;cancelled&lt;/div&gt;" style="edgeLabel;html=1;align=center;verticalAlign=middle;resizable=0;points=[];" vertex="1" connectable="0" parent="ROm6DJFv5Au94kjieVda-33">
          <mxGeometry x="-0.2141" relative="1" as="geometry">
            <mxPoint x="40" y="11" as="offset" />
          </mxGeometry>
        </mxCell>
        <mxCell id="ROm6DJFv5Au94kjieVda-35" value="" style="edgeStyle=orthogonalEdgeStyle;html=1;verticalAlign=bottom;endArrow=open;endSize=8;strokeColor=#ff0000;rounded=0;exitX=1.016;exitY=0.473;exitDx=0;exitDy=0;exitPerimeter=0;entryX=0;entryY=0.419;entryDx=0;entryDy=0;entryPerimeter=0;" edge="1" parent="1" source="ROm6DJFv5Au94kjieVda-29" target="ROm6DJFv5Au94kjieVda-4">
          <mxGeometry relative="1" as="geometry">
            <mxPoint x="800" y="319.49" as="targetPoint" />
            <mxPoint x="750" y="324.49" as="sourcePoint" />
          </mxGeometry>
        </mxCell>
        <mxCell id="ROm6DJFv5Au94kjieVda-36" value="" style="ellipse;html=1;shape=startState;fillColor=#000000;strokeColor=#ff0000;" vertex="1" parent="1">
          <mxGeometry x="1580" y="147" width="30" height="30" as="geometry" />
        </mxCell>
        <mxCell id="ROm6DJFv5Au94kjieVda-37" value="" style="edgeStyle=orthogonalEdgeStyle;html=1;verticalAlign=bottom;endArrow=open;endSize=8;strokeColor=#ff0000;rounded=0;" edge="1" source="ROm6DJFv5Au94kjieVda-36" parent="1">
          <mxGeometry relative="1" as="geometry">
            <mxPoint x="1595" y="220" as="targetPoint" />
          </mxGeometry>
        </mxCell>
        <mxCell id="ROm6DJFv5Au94kjieVda-39" value="&lt;span style=&quot;font-weight: normal;&quot;&gt;&lt;font style=&quot;font-size: 14px;&quot;&gt;User object created and set to &quot;online&quot;&lt;/font&gt;&lt;/span&gt;" style="text;strokeColor=none;align=center;fillColor=none;html=1;verticalAlign=middle;whiteSpace=wrap;rounded=0;fontStyle=1" vertex="1" parent="1">
          <mxGeometry x="1610" y="130" width="120" height="80" as="geometry" />
        </mxCell>
        <mxCell id="ROm6DJFv5Au94kjieVda-40" value="User Idle&lt;div&gt;(Awating event)&lt;/div&gt;" style="rounded=1;whiteSpace=wrap;html=1;arcSize=40;fontColor=#000000;fillColor=#ffffc0;strokeColor=#ff0000;" vertex="1" parent="1">
          <mxGeometry x="1540" y="220" width="120" height="40" as="geometry" />
        </mxCell>
        <mxCell id="ROm6DJFv5Au94kjieVda-41" value="" style="edgeStyle=orthogonalEdgeStyle;html=1;verticalAlign=bottom;endArrow=open;endSize=8;strokeColor=#ff0000;rounded=0;" edge="1" source="ROm6DJFv5Au94kjieVda-40" parent="1">
          <mxGeometry relative="1" as="geometry">
            <mxPoint x="1600" y="320" as="targetPoint" />
          </mxGeometry>
        </mxCell>
      </root>
    </mxGraphModel>
  </diagram>
</mxfile>
